# File produced by Open Asset Import Library (http://www.assimp.sf.net)
# (assimp v3.1.193236683)

mtllib SP_barricade_thick.mtl

# 68 vertex positions
v  -12.611 0 56.5577
v  -12.611 0 43.8376
v  -6.37803 0 39.0439
v  6.37803 0 39.0439
v  12.611 0 43.8376
v  12.611 0 56.5577
v  6.37803 0 61.3514
v  -6.37803 0 61.3514
v  -2.68308 162.444 61.3514
v  2.68308 162.444 61.3514
v  2.68308 162.444 39.0439
v  -2.68308 162.444 39.0439
v  6.37803 139.982 61.3514
v  -6.37803 139.982 61.3514
v  12.611 139.982 43.8376
v  12.611 139.982 56.5577
v  -6.37803 0 -104.222
v  -6.37803 139.982 -104.222
v  6.37803 139.982 -104.222
v  6.37803 0 -104.222
v  -12.611 139.982 56.5577
v  -12.611 139.982 43.8376
v  10.0912 145.683 61.3514
v  -10.0912 145.683 61.3514
v  10.0912 145.683 39.0439
v  6.37803 139.982 39.0439
v  -6.37803 139.982 39.0439
v  -10.0912 145.683 39.0439
v  -27.3024 0 27.745
v  27.3024 0 27.745
v  27.3024 0 72.6503
v  -27.3024 0 72.6503
v  27.3024 139.982 72.6503
v  -27.3024 139.982 72.6503
v  27.3024 139.982 27.745
v  -27.3024 139.982 27.745
v  -12.611 0 -107.895
v  -12.611 0 -120.615
v  -6.37803 0 -125.409
v  6.37803 0 -125.409
v  12.611 0 -120.615
v  12.611 0 -107.895
v  6.37803 0 -103.101
v  -6.37803 0 -103.101
v  -2.68308 162.444 -103.101
v  2.68308 162.444 -103.101
v  2.68308 162.444 -125.409
v  -2.68308 162.444 -125.409
v  6.37803 139.982 -103.101
v  -6.37803 139.982 -103.101
v  12.611 139.982 -120.615
v  12.611 139.982 -107.895
v  -6.37803 139.982 -125.409
v  6.37803 139.982 -125.409
v  -12.611 139.982 -107.895
v  -12.611 139.982 -120.615
v  10.0912 145.683 -103.101
v  -10.0912 145.683 -103.101
v  10.0912 145.683 -125.409
v  -10.0912 145.683 -125.409
v  -27.3024 0 -136.707
v  27.3024 0 -136.707
v  27.3024 0 -91.8022
v  -27.3024 0 -91.8022
v  27.3024 139.982 -91.8022
v  -27.3024 139.982 -91.8022
v  27.3024 139.982 -136.707
v  -27.3024 139.982 -136.707

# 170 UV coordinates
vt 0.0985752 0.0566434 0
vt 0.0985752 0.097284 0
vt 0.0832595 0.1126 0
vt 0.0519153 0.1126 0
vt 0.0365995 0.097284 0
vt 0.0365995 0.0566434 0
vt 0.0519153 0.0413277 0
vt 0.0832595 0.0413277 0
vt 0.826099 0.782496 0
vt 0.826099 0.795682 0
vt 0.754827 0.795682 0
vt 0.754827 0.782496 0
vt 0.498949 0.0832595 0
vt 0.154984 0.0832595 0
vt 0.154984 0.0519153 0
vt 0.498949 0.0519153 0
vt 0.0566434 0.985951 0
vt 0.0566435 0.641986 0
vt 0.097284 0.641986 0
vt 0.097284 0.985951 0
vt 0.0365724 0.15653 0
vt 0.0365724 0.500494 0
vt 0.00522817 0.500494 0
vt 0.00522817 0.15653 0
vt 0.177663 0.15653 0
vt 0.177663 0.500494 0
vt 0.137022 0.500494 0
vt 0.137022 0.15653 0
vt 0.140976 0.0923836 0
vt 0.0997915 0.0741802 0
vt 0.0997915 0.0609945 0
vt 0.140976 0.0427912 0
vt 0.0413277 0.627977 0
vt 0.0413277 0.586793 0
vt 0.1126 0.586793 0
vt 0.1126 0.627977 0
vt 0.641986 0.780053 0
vt 0.641986 0.811397 0
vt 0.627977 0.820521 0
vt 0.586793 0.802318 0
vt 0.586793 0.789132 0
vt 0.627977 0.770929 0
vt 0.192979 0.514503 0
vt 0.192979 0.555687 0
vt 0.121707 0.555687 0
vt 0.121707 0.514503 0
vt 0.134675 0.148699 0
vt 0.0005 0.148699 0
vt 0.00050002 0.00522817 0
vt 0.134675 0.00522817 0
vt 0.154984 0.134675 0
vt 0.498949 0.134675 0
vt 0.154984 0.0005 0
vt 0.498949 0.000500015 0
vt 0.00522819 0.641986 0
vt 0.00522817 0.985951 0
vt 0.148699 0.641986 0
vt 0.148699 0.985951 0
vt 0.641986 0.862813 0
vt 0.985951 0.811397 0
vt 0.985951 0.862813 0
vt 0.641986 0.728638 0
vt 0.985951 0.728638 0
vt 0.985951 0.780053 0
vt 0.229078 0.500494 0
vt 0.229078 0.15653 0
vt 0.085607 0.500494 0
vt 0.085607 0.15653 0
vt 0.028869 0.00522817 0
vt 0.0916918 0.00522817 0
vt 0.0378458 0.0249401 0
vt 0.0249401 0.0473021 0
vt 0.00522817 0.101148 0
vt 0.00522817 0.0383253 0
vt 0.113976 0.586793 0
vt 0.176799 0.586793 0
vt 0.122953 0.606505 0
vt 0.028869 0.531891 0
vt 0.048581 0.478045 0
vt 0.048581 0.540868 0
vt 0.0832594 0.570329 0
vt 0.0519152 0.570329 0
vt 0.987784 0.00522817 0
vt 0.987784 0.349193 0
vt 0.530055 0.349193 0
vt 0.530055 0.00522817 0
vt 0.987784 0.695541 0
vt 0.987784 0.726885 0
vt 0.530055 0.726885 0
vt 0.530055 0.695541 0
vt 0.530055 0.694349 0
vt 0.530055 0.350384 0
vt 0.987784 0.350384 0
vt 0.987784 0.694349 0
vt 0.462135 0.93417 0
vt 0.462135 0.893529 0
vt 0.47745 0.878213 0
vt 0.508795 0.878213 0
vt 0.52411 0.893529 0
vt 0.52411 0.93417 0
vt 0.508795 0.949485 0
vt 0.47745 0.949485 0
vt 0.826099 0.796154 0
vt 0.826099 0.80934 0
vt 0.754827 0.80934 0
vt 0.754827 0.796154 0
vt 0.203217 0.985951 0
vt 0.203217 0.641986 0
vt 0.234561 0.641986 0
vt 0.234561 0.985951 0
vt 0.470809 0.147073 0
vt 0.470809 0.491038 0
vt 0.430169 0.491038 0
vt 0.430169 0.147073 0
vt 0.340333 0.985951 0
vt 0.340334 0.641986 0
vt 0.371678 0.641986 0
vt 0.371678 0.985951 0
vt 0.324236 0.147073 0
vt 0.324236 0.491038 0
vt 0.283596 0.491038 0
vt 0.283596 0.147073 0
vt 0.194093 0.627977 0
vt 0.212296 0.586793 0
vt 0.225482 0.586793 0
vt 0.243685 0.627977 0
vt 0.486125 0.505046 0
vt 0.486125 0.546231 0
vt 0.414853 0.546231 0
vt 0.414853 0.505046 0
vt 0.331209 0.627977 0
vt 0.349413 0.586793 0
vt 0.362599 0.586793 0
vt 0.380802 0.627977 0
vt 0.339552 0.505046 0
vt 0.339552 0.546231 0
vt 0.26828 0.546231 0
vt 0.26828 0.505046 0
vt 0.426035 0.842114 0
vt 0.56021 0.842114 0
vt 0.56021 0.985585 0
vt 0.426035 0.985585 0
vt 0.151801 0.641986 0
vt 0.151801 0.985951 0
vt 0.285976 0.641986 0
vt 0.285976 0.985951 0
vt 0.522224 0.491038 0
vt 0.522224 0.147073 0
vt 0.378753 0.491038 0
vt 0.378753 0.147073 0
vt 0.288918 0.641986 0
vt 0.288918 0.985951 0
vt 0.423093 0.641986 0
vt 0.423093 0.985951 0
vt 0.375651 0.491038 0
vt 0.375651 0.147073 0
vt 0.23218 0.491038 0
vt 0.23218 0.147073 0
vt 0.176799 0.620689 0
vt 0.113976 0.620689 0
vt 0.167822 0.600977 0
vt 0.990523 0.805088 0
vt 0.936677 0.785376 0
vt 0.9995 0.785376 0
vt 0.23218 0.586793 0
vt 0.295003 0.586793 0
vt 0.241157 0.606505 0
vt 0.300211 0.625417 0
vt 0.246365 0.605705 0
vt 0.309188 0.605705 0

# 76 vertex normals
vn 0 -1 -6.12323e-17
vn 0 1 6.12323e-17
vn 0 -6.12323e-17 1
vn 1 0 0
vn 0 6.12323e-17 -1
vn -1 0 0
vn 0 -6.12323e-17 1
vn 0.914641 0.404266 2.47541e-17
vn 0.914641 0.404266 1.79579e-07
vn 0.914641 0.404266 2.47542e-17
vn 0.914641 0.404266 -7.49822e-07
vn 0 6.12323e-17 -1
vn -0.914641 0.404266 2.47541e-17
vn -0.914641 0.404266 -1.79579e-07
vn -0.914641 0.404266 2.47542e-17
vn -0.914641 0.404266 7.49822e-07
vn -0.47514 -5.3879e-17 0.87991
vn -0.47514 -5.3879e-17 0.87991
vn 0.47514 -5.3879e-17 0.87991
vn 0.47514 -5.3879e-17 0.87991
vn 0.738528 -4.12842e-17 0.674223
vn 0.738528 -4.12842e-17 0.674222
vn 0.738528 4.12842e-17 -0.674223
vn 0.738528 4.12842e-17 -0.674222
vn 0.47514 5.3879e-17 -0.87991
vn 0.47514 5.3879e-17 -0.87991
vn -0.47514 5.3879e-17 -0.87991
vn -0.47514 5.3879e-17 -0.87991
vn -0.738528 4.12842e-17 -0.674223
vn -0.738528 4.12842e-17 -0.674222
vn -0.738528 -4.12842e-17 0.674223
vn -0.738528 -4.12842e-17 0.674222
vn -0.453901 0.295639 0.840578
vn -0.453901 0.295639 0.840578
vn 0.453901 0.295639 0.840578
vn 0.453901 0.295639 0.840578
vn 0.550761 0.66622 0.502805
vn 0.550761 0.66622 -0.502805
vn 0.453901 0.295639 -0.840578
vn 0.453901 0.295639 -0.840578
vn -0.453901 0.295639 -0.840578
vn -0.453901 0.295639 -0.840578
vn -0.550761 0.66622 -0.502805
vn -0.550761 0.66622 0.502805
vn 0.914641 0.404266 2.47541e-17
vn 0.914641 0.404266 1.79579e-07
vn 0.914641 0.404266 2.47542e-17
vn 0.914641 0.404266 -5.62367e-07
vn -0.914641 0.404266 2.47541e-17
vn -0.914641 0.404266 -1.79579e-07
vn -0.914641 0.404266 2.47542e-17
vn -0.914641 0.404266 5.62367e-07
vn -0.47514 -5.3879e-17 0.87991
vn 0.47514 -5.3879e-17 0.87991
vn 0.47514 5.3879e-17 -0.87991
vn -0.47514 5.3879e-17 -0.87991
vn -0.453901 0.295639 0.840578
vn -0.453901 0.295639 0.840578
vn -0.453901 0.295639 0.840578
vn 0.453901 0.295639 0.840578
vn 0.453901 0.295639 0.840578
vn 0.453901 0.295639 0.840578
vn 0.550761 0.66622 0.502805
vn 0.550761 0.66622 0.502805
vn 0.550761 0.66622 -0.502805
vn 0.550761 0.66622 -0.502805
vn 0.453901 0.295639 -0.840578
vn 0.453901 0.295639 -0.840578
vn 0.453901 0.295639 -0.840578
vn -0.453901 0.295639 -0.840578
vn -0.453901 0.295639 -0.840578
vn -0.453901 0.295639 -0.840578
vn -0.550761 0.66622 -0.502805
vn -0.550761 0.66622 -0.502805
vn -0.550761 0.66622 0.502805
vn -0.550761 0.66622 0.502805

# Mesh 'Box002_Box002_1001' with 128 faces
g Box002_Box002_1001
usemtl 1001
f  1/1/1 2/2/1 3/3/1
f  3/3/1 4/4/1 5/5/1
f  1/1/1 3/3/1 5/5/1
f  5/5/1 6/6/1 7/7/1
f  1/1/1 5/5/1 7/7/1
f  1/1/1 7/7/1 8/8/1
f  9/9/2 10/10/2 11/11/2
f  11/11/2 12/12/2 9/9/2
f  7/13/3 13/14/3 14/15/3
f  14/15/3 8/16/3 7/13/3
f  5/17/4 15/18/4 16/19/4
f  16/19/4 6/20/4 5/17/4
f  17/21/5 18/22/5 19/23/5
f  19/23/5 20/24/5 17/21/5
f  1/25/6 21/26/6 22/27/6
f  22/27/6 2/28/6 1/25/6
f  14/15/3 13/14/3 23/29/3
f  14/15/3 23/29/3 10/30/7
f  14/15/3 10/30/7 9/31/3
f  14/15/3 9/31/3 24/32/3
f  16/19/8 15/18/8 25/33/8
f  16/19/8 25/33/8 11/34/9
f  16/19/8 11/34/9 10/35/10
f  16/19/8 10/35/10 23/36/11
f  26/37/5 27/38/5 28/39/5
f  26/37/5 28/39/5 12/40/12
f  26/37/5 12/40/12 11/41/5
f  26/37/5 11/41/5 25/42/5
f  22/27/13 21/26/13 24/43/13
f  22/27/13 24/43/13 9/44/14
f  22/27/13 9/44/14 12/45/15
f  22/27/13 12/45/15 28/46/16
f  2/2/1 29/47/1 3/3/1
f  4/4/1 30/48/1 5/5/1
f  6/6/1 31/49/1 7/7/1
f  8/8/1 32/50/1 1/1/1
f  33/51/17 13/14/18 7/13/18
f  7/13/18 31/52/18 33/51/17
f  14/15/19 34/53/20 32/54/20
f  32/54/20 8/16/20 14/15/19
f  35/55/21 15/18/22 5/17/21
f  5/17/21 30/56/22 35/55/21
f  16/19/23 33/57/24 31/58/23
f  31/58/23 6/20/24 16/19/23
f  36/59/25 27/38/26 3/60/26
f  3/60/26 29/61/26 36/59/25
f  26/37/27 35/62/28 30/63/28
f  30/63/28 4/64/28 26/37/27
f  34/65/29 21/26/30 1/25/29
f  1/25/29 32/66/30 34/65/29
f  22/27/31 36/67/32 29/68/31
f  29/68/31 2/28/32 22/27/31
f  13/14/33 33/51/34 23/29/33
f  24/32/35 34/53/36 14/15/35
f  15/69/37 35/70/37 25/71/37
f  23/72/38 33/73/38 16/74/38
f  27/38/39 36/59/40 28/39/39
f  25/42/41 35/62/42 26/37/41
f  21/75/43 34/76/43 24/77/43
f  28/78/44 36/79/44 22/80/44
f  4/4/1 3/3/1 17/81/1
f  17/81/1 20/82/1 4/4/1
f  3/83/6 27/84/6 18/85/6
f  18/85/6 17/86/6 3/83/6
f  27/87/2 26/88/2 19/89/2
f  19/89/2 18/90/2 27/87/2
f  26/91/4 4/92/4 20/93/4
f  20/93/4 19/94/4 26/91/4
f  37/95/1 38/96/1 39/97/1
f  39/97/1 40/98/1 41/99/1
f  37/95/1 39/97/1 41/99/1
f  41/99/1 42/100/1 43/101/1
f  37/95/1 41/99/1 43/101/1
f  37/95/1 43/101/1 44/102/1
f  45/103/2 46/104/2 47/105/2
f  47/105/2 48/106/2 45/103/2
f  43/107/3 49/108/3 50/109/3
f  50/109/3 44/110/3 43/107/3
f  41/111/4 51/112/4 52/113/4
f  52/113/4 42/114/4 41/111/4
f  39/115/5 53/116/5 54/117/5
f  54/117/5 40/118/5 39/115/5
f  37/119/6 55/120/6 56/121/6
f  56/121/6 38/122/6 37/119/6
f  50/109/3 49/108/3 57/123/3
f  50/109/3 57/123/3 46/124/3
f  50/109/3 46/124/3 45/125/3
f  50/109/3 45/125/3 58/126/3
f  52/113/45 51/112/8 59/127/45
f  52/113/45 59/127/45 47/128/46
f  52/113/45 47/128/46 46/129/47
f  52/113/45 46/129/47 57/130/48
f  54/117/5 53/116/5 60/131/5
f  54/117/5 60/131/5 48/132/5
f  54/117/5 48/132/5 47/133/5
f  54/117/5 47/133/5 59/134/5
f  56/121/49 55/120/13 58/135/49
f  56/121/49 58/135/49 45/136/50
f  56/121/49 45/136/50 48/137/51
f  56/121/49 48/137/51 60/138/52
f  38/96/1 61/139/1 39/97/1
f  40/98/1 62/140/1 41/99/1
f  42/100/1 63/141/1 43/101/1
f  44/102/1 64/142/1 37/95/1
f  65/143/53 49/108/53 43/107/18
f  43/107/18 63/144/53 65/143/53
f  50/109/54 66/145/54 64/146/20
f  64/146/20 44/110/54 50/109/54
f  67/147/22 51/112/22 41/111/21
f  41/111/21 62/148/22 67/147/22
f  52/113/24 65/149/24 63/150/23
f  63/150/23 42/114/24 52/113/24
f  68/151/55 53/116/55 39/115/26
f  39/115/26 61/152/55 68/151/55
f  54/117/56 67/153/56 62/154/28
f  62/154/28 40/118/56 54/117/56
f  66/155/30 55/120/30 37/119/29
f  37/119/29 64/156/30 66/155/30
f  56/121/32 68/157/32 61/158/31
f  61/158/31 38/122/32 56/121/32
f  49/108/57 65/143/58 57/123/59
f  58/126/60 66/145/61 50/109/62
f  51/159/63 67/160/64 59/161/37
f  57/162/38 65/163/65 52/164/66
f  53/116/67 68/151/68 60/131/69
f  59/134/70 67/153/71 54/117/72
f  55/165/73 66/166/74 58/167/43
f  60/168/44 68/169/75 56/170/76

